# xmcd
#
# Track frame offsets: 
#        150
#        23220
#        47334
#        66598
#        89069
#        110148
#        122878
#
# Disc length: 1832 seconds
#
# Revision: 0
# Processed by: cddbd v1.5.2PL0 Copyright (c) Steve Scherf et al.
# Submitted via: ExactAudioCopy v0.99pb1
#
DISCID=65072607
DTITLE=Edgehill Ave. - Edgehill Ave.
DYEAR=2007
DGENRE=Alt. Country
TTITLE0=With These Hands
TTITLE1=Hey Sunshine
TTITLE2=Sunday Morning
TTITLE3=Bittersweet
TTITLE4=Let It Go
TTITLE5=All I Need
TTITLE6=60 Days
EXTD=
EXTT0=
EXTT1=
EXTT2=
EXTT3=
EXTT4=
EXTT5=
EXTT6=
PLAYORDER=
